<?xml version="1.0" standalone="no"?>
<!DOCTYPE svg PUBLIC "-//W3C//DTD SVG 20010904//EN"
 "http://www.w3.org/TR/2001/REC-SVG-20010904/DTD/svg10.dtd">
<svg version="1.0" xmlns="http://www.w3.org/2000/svg"
 width="512.000000pt" height="512.000000pt" viewBox="0 0 512.000000 512.000000"
 preserveAspectRatio="xMidYMid meet">
<metadata>
Created by potrace 1.14, written by Peter Selinger 2001-2017
</metadata>
<g transform="translate(0.000000,512.000000) scale(0.100000,-0.100000)"
fill="#000000" stroke="none">
<path d="M2315 4879 c-4 -12 -36 -82 -71 -156 -35 -74 -64 -136 -64 -138 0 -3
-16 -37 -35 -77 -20 -40 -34 -77 -31 -83 2 -5 21 -19 42 -30 58 -30 202 -117
275 -166 65 -44 220 -158 229 -168 3 -3 27 -24 55 -46 160 -128 427 -408 563
-590 236 -315 427 -684 545 -1051 35 -108 93 -341 108 -431 7 -40 15 -71 18
-69 3 2 29 7 56 11 28 3 100 15 160 25 61 10 124 21 140 24 188 32 168 18 150
101 -4 17 -9 44 -12 60 -17 114 -141 551 -182 640 -5 11 -16 39 -25 62 -23 63
-51 125 -117 263 -234 485 -588 952 -979 1290 -41 36 -77 67 -80 70 -64 64
-340 259 -540 382 -56 34 -178 98 -188 98 -6 0 -14 -9 -17 -21z"/>
<path d="M2007 4212 c-82 -174 -138 -295 -187 -402 -26 -58 -68 -148 -93 -200
-58 -124 -101 -216 -237 -510 -34 -74 -85 -182 -112 -240 -28 -58 -72 -152
-98 -210 -26 -58 -75 -163 -109 -234 -34 -70 -61 -130 -61 -132 0 -1 -22 -49
-49 -106 -27 -57 -79 -168 -116 -248 -37 -80 -80 -172 -95 -205 -15 -33 -44
-95 -63 -137 -20 -43 -59 -126 -86 -185 l-50 -108 0 -500 c0 -538 2 -555 52
-571 21 -7 28 -8 77 -5 11 1 29 15 40 34 19 31 20 51 20 565 0 418 3 532 13
533 27 3 63 8 77 11 12 3 14 -48 15 -332 1 -364 1 -368 58 -391 37 -16 84 -1
110 33 19 26 20 42 19 377 0 193 2 351 6 351 4 0 45 7 92 14 47 8 101 17 120
20 19 3 68 12 107 19 40 8 75 12 78 9 3 -3 5 -100 5 -216 0 -116 3 -220 6
-232 9 -34 72 -63 112 -52 64 17 69 39 69 299 0 126 3 233 6 236 4 3 20 7 37
9 16 2 42 6 58 9 15 3 43 8 62 11 31 4 59 8 175 29 17 2 40 7 51 9 12 2 39 7
60 10 43 7 116 19 214 36 36 7 74 13 85 15 11 1 47 7 80 13 33 6 74 13 90 16
36 5 150 24 185 31 14 2 108 18 210 35 102 17 196 33 210 35 80 14 209 36 235
39 17 2 41 7 55 10 14 3 43 8 65 11 22 3 47 7 55 10 8 2 31 6 50 9 94 11 110
17 105 40 -2 11 -9 46 -15 76 -6 30 -12 64 -14 75 -20 99 -116 424 -146 490
-5 11 -33 78 -64 148 -47 110 -111 235 -191 376 -50 88 -238 358 -265 381 -3
3 -16 19 -29 35 -73 96 -250 280 -381 397 -176 157 -375 298 -601 426 l-56 32
-46 -98z"/>
<path d="M1573 686 c-28 -24 -28 -26 -31 -155 l-4 -131 30 -30 c50 -49 128
-34 150 29 11 32 9 237 -3 264 -9 22 -56 47 -89 47 -14 0 -38 -11 -53 -24z"/>
</g>
</svg>
